<?xml version="1.0" standalone="no"?><!DOCTYPE svg PUBLIC "-//W3C//DTD SVG 1.1//EN" "http://www.w3.org/Graphics/SVG/1.1/DTD/svg11.dtd"><svg t="1710077251957" class="icon" viewBox="0 0 1024 1024" version="1.1" xmlns="http://www.w3.org/2000/svg" p-id="4561" xmlns:xlink="http://www.w3.org/1999/xlink" width="200" height="200"><path d="M870.4 409.6h-46.933333c-29.866667 0-51.2-25.6-55.466667-51.2 0-145.066667-119.466667-256-264.533333-256H371.2c-145.066667 0-264.533333 119.466667-264.533333 264.533333v290.133334c0 145.066667 119.466667 264.533333 264.533333 264.533333h285.866667c145.066667 0 264.533333-119.466667 264.533333-264.533333V469.333333c0-25.6-21.333333-59.733333-51.2-59.733333z m-512-102.4H512c29.866667 0 51.2 21.333333 51.2 51.2s-21.333333 51.2-51.2 51.2H358.4c-29.866667 0-51.2-21.333333-51.2-51.2s25.6-51.2 51.2-51.2z m307.2 409.6H358.4c-29.866667 0-51.2-21.333333-51.2-51.2s21.333333-51.2 51.2-51.2h307.2c29.866667 0 51.2 21.333333 51.2 51.2s-21.333333 51.2-51.2 51.2z" p-id="4562"></path></svg>