<?xml version="1.0" standalone="no"?><!DOCTYPE svg PUBLIC "-//W3C//DTD SVG 1.1//EN" "http://www.w3.org/Graphics/SVG/1.1/DTD/svg11.dtd"><svg t="1710078852661" class="icon" viewBox="0 0 1024 1024" version="1.1" xmlns="http://www.w3.org/2000/svg" p-id="21734" xmlns:xlink="http://www.w3.org/1999/xlink" width="200" height="200"><path d="M512.03016494 459.12088111c-124.27950359 0-225.36217754-101.08267394-225.36217755-225.3320126s101.08267394-225.33201261 225.36217755-225.33201261c124.24933868 0 225.33201261 101.08267394 225.3320126 225.33201261s-101.08267394 225.33201261-225.3320126 225.3320126z m0-384.33134841c-87.68944588 0-159.02950073 71.34005486-159.02950074 158.99933581s71.34005486 158.9993358 159.02950074 158.9993358c87.65928094 0 158.9993358-71.34005486 158.99933579-158.9993358s-71.34005486-158.9993358-158.99933579-158.99933581zM676.42902285 1015.51297917H347.60114207c-155.37954444 0-281.80075793-112.2436973-281.80075794-250.18791331 0-137.91405108 126.4212135-250.15774838 281.80075794-250.15774842h328.82788078c155.34937952 0 281.80075793 112.2436973 281.80075793 250.15774842 0 137.97438095-126.4212135 250.18791333-281.80075793 250.18791331zM347.60114207 581.49999425c-118.81965162 0-215.49824605 82.47091331-215.49824606 183.85523652 0 101.38432321 96.67859443 183.88540145 215.49824606 183.88540148h328.82788078c118.78948671 0 215.49824605-82.47091331 215.49824606-183.88540148 0-101.35415828-96.67859443-183.85523653-215.49824606-183.85523652H347.60114207z" fill="#13227a" p-id="21735"></path></svg>